<svg xmlns="http://www.w3.org/2000/svg" viewBox="0 0 760 260" role="img" aria-labelledby="vault-title vault-desc" font-family="-apple-system, Segoe UI, Roboto, sans-serif">
  <title id="vault-title">Vault Secrets Architecture</title>
  <desc id="vault-desc">Three-column architecture showing how encrypted secrets in vault.yml are referenced by group_vars/all and consumed by Ambari API authentication, service password cascading (Ranger, Knox, NiFi, Kerberos, Solr), and database connections (Hive, Oozie, Ranger JDBC).</desc>
  <defs>
    <filter id="ds" x="-3%" y="-3%" width="106%" height="112%"><feDropShadow dx="0" dy="1" stdDeviation="2" flood-opacity="0.08"/></filter>
    <marker id="a" markerWidth="8" markerHeight="6" refX="8" refY="3" orient="auto"><polygon points="0 0, 8 3, 0 6" fill="#c62828"/></marker>
    <marker id="ab" markerWidth="8" markerHeight="6" refX="8" refY="3" orient="auto"><polygon points="0 0, 8 3, 0 6" fill="#546e7a"/></marker>
  </defs>
  <rect width="760" height="260" fill="#f8f9fa" rx="10"/>
  <text x="380" y="22" text-anchor="middle" fill="#1a237e" font-size="13" font-weight="700">Vault Secrets Architecture</text>

  <!-- vault.yml box -->
  <rect x="16" y="38" width="190" height="208" rx="8" fill="#fff" stroke="#c62828" stroke-width="2" filter="url(#ds)"/>
  <rect x="16" y="38" width="190" height="28" rx="8" fill="#c62828"/>
  <rect x="16" y="54" width="190" height="12" fill="#c62828"/>
  <text x="56" y="56" fill="#fff" font-size="12" font-weight="700">vault.yml</text>
  <text x="148" y="56" fill="#ef9a9a" font-size="8">ENCRYPTED</text>

  <text x="28" y="86" fill="#c62828" font-size="9" font-weight="600">Admin Credentials</text>
  <text x="28" y="102" fill="#546e7a" font-size="8.5">vault_ambari_admin_password</text>
  <text x="28" y="116" fill="#546e7a" font-size="8.5">vault_ambari_admin_default_password</text>

  <line x1="28" y1="124" x2="194" y2="124" stroke="#e0e0e0" stroke-width="0.5"/>

  <text x="28" y="140" fill="#c62828" font-size="9" font-weight="600">Master Password</text>
  <text x="28" y="156" fill="#546e7a" font-size="8.5">vault_default_password</text>

  <line x1="28" y1="164" x2="194" y2="164" stroke="#e0e0e0" stroke-width="0.5"/>

  <text x="28" y="180" fill="#c62828" font-size="9" font-weight="600">Database Passwords</text>
  <text x="28" y="196" fill="#546e7a" font-size="8.5">vault_ambari_db_password</text>
  <text x="28" y="210" fill="#546e7a" font-size="8.5">vault_hive_db_password</text>
  <text x="28" y="224" fill="#546e7a" font-size="8.5">vault_oozie_db_password</text>
  <text x="28" y="238" fill="#78909c" font-size="8">+ rangeradmin, rangerkms</text>

  <!-- Arrow to group_vars -->
  <line x1="206" y1="100" x2="240" y2="100" stroke="#c62828" stroke-width="1.5" marker-end="url(#a)"/>
  <line x1="206" y1="156" x2="240" y2="156" stroke="#c62828" stroke-width="1.5" marker-end="url(#a)"/>
  <line x1="206" y1="210" x2="240" y2="210" stroke="#c62828" stroke-width="1.5" marker-end="url(#a)"/>

  <!-- group_vars/all box -->
  <rect x="244" y="38" width="220" height="208" rx="8" fill="#fff" stroke="#689f38" stroke-width="2" filter="url(#ds)"/>
  <rect x="244" y="38" width="220" height="28" rx="8" fill="#689f38"/>
  <rect x="244" y="54" width="220" height="12" fill="#689f38"/>
  <text x="296" y="56" fill="#fff" font-size="12" font-weight="700">group_vars/all</text>
  <text x="404" y="56" fill="#c5e1a5" font-size="8">READABLE</text>

  <text x="256" y="86" fill="#33691e" font-size="9" font-weight="600">References vault variables</text>
  <text x="256" y="104" fill="#546e7a" font-size="8.5">ambari_admin_password:</text>
  <text x="260" y="118" fill="#c62828" font-size="8">{{ vault_ambari_admin_password }}</text>

  <text x="256" y="140" fill="#546e7a" font-size="8.5">default_password:</text>
  <text x="260" y="154" fill="#c62828" font-size="8">{{ vault_default_password }}</text>

  <text x="256" y="176" fill="#546e7a" font-size="8.5">database_options:</text>
  <text x="264" y="190" fill="#546e7a" font-size="8">ambari_db_password:</text>
  <text x="268" y="204" fill="#c62828" font-size="8">{{ vault_ambari_db_password }}</text>
  <text x="264" y="220" fill="#78909c" font-size="8">hive, oozie, ranger ...</text>

  <!-- Arrow to services -->
  <line x1="464" y1="100" x2="498" y2="80" stroke="#546e7a" stroke-width="1.2" marker-end="url(#ab)"/>
  <line x1="464" y1="156" x2="498" y2="140" stroke="#546e7a" stroke-width="1.2" marker-end="url(#ab)"/>
  <line x1="464" y1="196" x2="498" y2="200" stroke="#546e7a" stroke-width="1.2" marker-end="url(#ab)"/>

  <!-- Consumers -->
  <rect x="502" y="38" width="244" height="208" rx="8" fill="#fff" stroke="#1565c0" stroke-width="1.5" filter="url(#ds)"/>
  <rect x="502" y="38" width="244" height="28" rx="8" fill="#1565c0"/>
  <rect x="502" y="54" width="244" height="12" fill="#1565c0"/>
  <text x="624" y="56" text-anchor="middle" fill="#fff" font-size="12" font-weight="700">Consumed By</text>

  <text x="514" y="84" fill="#0d47a1" font-size="9" font-weight="600">Ambari API (basic auth)</text>
  <text x="514" y="100" fill="#78909c" font-size="8">Config change, VDF, blueprint upload</text>

  <line x1="514" y1="108" x2="734" y2="108" stroke="#e0e0e0" stroke-width="0.5"/>

  <text x="514" y="126" fill="#0d47a1" font-size="9" font-weight="600">default_password cascades to:</text>
  <rect x="514" y="132" width="100" height="16" rx="8" fill="#fce4ec"/>
  <text x="564" y="144" text-anchor="middle" fill="#b71c1c" font-size="7.5" font-weight="600">Ranger (x3)</text>
  <rect x="620" y="132" width="60" height="16" rx="8" fill="#fce4ec"/>
  <text x="650" y="144" text-anchor="middle" fill="#b71c1c" font-size="7.5" font-weight="600">Knox</text>
  <rect x="686" y="132" width="52" height="16" rx="8" fill="#fce4ec"/>
  <text x="712" y="144" text-anchor="middle" fill="#b71c1c" font-size="7.5" font-weight="600">NiFi (x2)</text>
  <rect x="514" y="152" width="72" height="16" rx="8" fill="#fce4ec"/>
  <text x="550" y="164" text-anchor="middle" fill="#b71c1c" font-size="7.5" font-weight="600">Kerberos</text>
  <rect x="592" y="152" width="56" height="16" rx="8" fill="#fce4ec"/>
  <text x="620" y="164" text-anchor="middle" fill="#b71c1c" font-size="7.5" font-weight="600">Solr</text>

  <line x1="514" y1="176" x2="734" y2="176" stroke="#e0e0e0" stroke-width="0.5"/>

  <text x="514" y="194" fill="#0d47a1" font-size="9" font-weight="600">Database connections</text>
  <text x="514" y="210" fill="#78909c" font-size="8">ambari-server setup --databasepassword</text>
  <text x="514" y="224" fill="#78909c" font-size="8">postgresql_db / mysql_db schema load</text>
  <text x="514" y="238" fill="#78909c" font-size="8">Blueprint: Hive, Oozie, Ranger JDBC</text>
</svg>
